<svg xmlns="http://www.w3.org/2000/svg" width="400" height="430"><polygon points="194,0 172,5.16 148,11.180000000000001 124,18.060000000000002 96,25.8 68,33.54 44,40.85 28.000000000000004,47.3 16,53.75 8,64.5 4,77.39999999999999 2.4,90.3 2,378.4 8,395.6 18,408.5 30,417.09999999999997 44,423.12000000000006 200,426.56 356,423.12000000000006 370,417.09999999999997 382,408.5 392,395.6 398,378.4 397.6,90.3 396,77.39999999999999 392,64.5 384,53.75 372,47.3 356,40.85 332,33.54 304,25.8 276,18.060000000000002 252,11.180000000000001 227.99999999999997,5.16 206,0" fill="#E8F5E8" stroke="rgba(76,175,80,0.45)" stroke-width="3"/></svg>